<?xml version="1.0" encoding="utf-8"?>
<!-- Generator: Adobe Illustrator 21.1.0, SVG Export Plug-In . SVG Version: 6.00 Build 0)  -->
<svg version="1.1" id="レイヤー_1" xmlns="http://www.w3.org/2000/svg" xmlns:xlink="http://www.w3.org/1999/xlink" x="0px"
	 y="0px" viewBox="0 0 355.6 172.6" style="enable-background:new 0 0 355.6 172.6;" xml:space="preserve">
<style type="text/css">
	.st0{fill:#FFFFFF;}
	.st1{fill:none;}
</style>
<g>
	<path class="st0" d="M337.3,4.9H174.5v162.8h162.8V4.9z M235.4,48.8c0-4.8,3.8-8.6,8.5-8.7v0H268v7.6H245c-0.6,0-1.1,0.5-1.1,1.1
		v9.1h22v7.6h-22V75c0,0.6,0.5,1.1,1.1,1.1H268v7.6h-24.1v0c-4.7-0.1-8.5-4-8.5-8.7V48.8z M230.8,96.5h-23.7c-0.6,0-1.1,0.5-1.1,1.1
		v9.1h22.8v7.6H206v9.5c0,0.6,0.5,1.1,1.1,1.1h23.7v7.6H206c-4.7-0.1-8.5-4-8.5-8.7V97.6c0-4.7,3.8-8.6,8.5-8.7v0h24.9V96.5z
		 M230.8,80.4c0,1.8-1.5,3.3-3.2,3.3h-2.5c-1.2,0-2.2-0.6-2.8-1.4L206,56.9v26.8h-8.5V43.3c0-1.8,1.5-3.3,3.3-3.3h2.5
		c1.2,0,2.2,0.6,2.8,1.4l16.3,25.3V40.1h8.5V80.4z M264.8,132.5l-8.9-18.2h-10.8l2.9-6.6c0.2-0.6,0.8-0.9,1.4-0.9h13.4
		c0.6,0,1.1-0.5,1.1-1.1v-8c0-0.6-0.5-1.1-1.1-1.1H245c-0.6,0-1.1,0.5-1.1,1.1v34.9h-8.5V97.6c0-4.7,3.8-8.6,8.5-8.7v0H264v0
		c4.7,0.1,8.5,4,8.5,8.7v8.1c0,4.4-3.3,7.9-7.4,8.6l9.6,18.2H264.8z M314.3,132.5h-8.5v-18.2h-18.1l2.9-6.6c0.2-0.6,0.8-0.9,1.4-0.9
		h13.8v-9.1c0-0.6-0.5-1.1-1.1-1.1h-17.2c-0.6,0-1.1,0.5-1.1,1.1v34.9h-8.5V97.6c0-4.7,3.8-8.6,8.5-8.7v0h19.5v0
		c4.7,0.1,8.5,4,8.5,8.7V132.5z M314.3,75c0,4.7-3.8,8.6-8.5,8.7H281c-4.7-0.1-8.5-4-8.5-8.7V40.1h8.5V75c0,0.6,0.5,1.1,1.1,1.1h7
		v-36h8.5v36h7c0.6,0,1.1-0.5,1.1-1.1V40.1h8.5V75z"/>
	<path class="st0" d="M127.6,66.3c-4.2-0.8-37.2-6.6-37.2-6.6c-1.9-4.3-7.4-8.8-15.2-10.8L26.5,36.7c-4.8-1.2-8.6,2.2-7.9,7.2
		c0,0,11.1,82.5,11.7,87c0.6,4.7,5,6.7,9.6,5.1c4.3-1.6,40.3-15.7,46-17.9c7.7-3,11.9-3.5,13.3,0.1c2.2,5.8,9,6,17.1,1.5
		c7.3-4.1,37.7-21.7,37.7-21.7s-14-22.1-15.5-24.5C136.4,70.1,133.6,67.4,127.6,66.3z M128.8,70.8c2.8,0.3,4.5,1.7,5.5,3.1
		c0.3,0.4,1.2,2,1.2,2L104.4,75l-3.6-7.4C100.9,67.6,126.5,70.5,128.8,70.8z M33.2,46.2l18.3,3.7c0,0,1.5,5.2,1.7,5.9
		c0.1-2.9,2.7-5,6.1-4.3c3.4,0.7,8.7,1.8,10.9,2.2c9.7,1.9,14.2,3.6,17.8,11.9l11.4,26.4c-2.5-1.6-5.7-2.2-13.9-1.1l-2,0.3
		c0,0-5.7-15.6-7.5-20.3c-1.7-4.7-3.8-7.5-9.3-8.2c-1.5-0.2-11.9-1.4-11.9-1.4l9.3,32.4l-20.7,2.6L33.2,46.2z M148,96.2
		c0,0-21.8,9.7-27.4,12.2c-6.9,3.1-13,2.7-15.2-2.3c-1-2.3-5.5-2.2-14,0.3L48,119l-3-14.8c0,0,34.7-6.4,42.7-7.9
		c8-1.5,13.2-0.6,15.4,4.4c0.6,1.3,0.8,1.9,0.8,1.9l40.6-11.9L148,96.2z M141.9,86.4l-29.4,5.4l-4-8.2l30.3-2.2L141.9,86.4z"/>
	<path class="st0" d="M272.5,105.7v-8.1c0-4.7-3.8-8.6-8.5-8.7v0h-20.1v0c-4.7,0.1-8.5,4-8.5,8.7v34.9h8.5V97.6
		c0-0.6,0.5-1.1,1.1-1.1h17.8c0.6,0,1.1,0.5,1.1,1.1v8c0,0.6-0.5,1.1-1.1,1.1h-13.4c-0.6,0-1.2,0.4-1.4,0.9l-2.9,6.6h10.8l8.9,18.2
		h9.9l-9.6-18.2C269.2,113.6,272.5,110,272.5,105.7z"/>
	<path class="st0" d="M222.3,66.8L206,41.5c-0.6-0.9-1.7-1.4-2.8-1.4h-2.5c-1.8,0-3.3,1.5-3.3,3.3v40.4h8.5V56.9l16.3,25.3
		c0.6,0.8,1.7,1.4,2.8,1.4h2.5c1.8,0,3.2-1.5,3.2-3.3V40.1h-8.5V66.8z"/>
	<path class="st0" d="M206,88.9c-4.7,0.1-8.5,4-8.5,8.7v26.2c0,4.7,3.8,8.6,8.5,8.7h24.9v-7.6h-23.7c-0.6,0-1.1-0.5-1.1-1.1v-9.5
		h22.8v-7.6H206v-9.1c0-0.6,0.5-1.1,1.1-1.1h23.7v-7.6L206,88.9L206,88.9z"/>
	<path class="st0" d="M243.9,83.7L243.9,83.7l24.1,0v-7.6H245c-0.6,0-1.1-0.5-1.1-1.1v-9.5h22v-7.6h-22v-9.1c0-0.6,0.5-1.1,1.1-1.1
		H268v-7.6h-24.1v0c-4.7,0.1-8.5,4-8.5,8.7V75C235.4,79.7,239.2,83.5,243.9,83.7z"/>
	<path class="st0" d="M305.8,75c0,0.6-0.5,1.1-1.1,1.1h-7v-36h-8.5v36h-7c-0.6,0-1.1-0.5-1.1-1.1V40.1h-8.5V75
		c0,4.7,3.8,8.6,8.5,8.7h24.9c4.7-0.1,8.5-4,8.5-8.7V40.1h-8.5V75z"/>
	<path class="st0" d="M305.8,88.9L305.8,88.9l-19.5,0v0c-4.7,0.1-8.5,4-8.5,8.7v34.9h8.5V97.6c0-0.6,0.5-1.1,1.1-1.1h17.2
		c0.6,0,1.1,0.5,1.1,1.1v9.1H292c-0.6,0-1.2,0.4-1.4,0.9l-2.9,6.6h18.1v18.2h8.5V97.6C314.3,92.9,310.5,89,305.8,88.9z"/>
	<path class="st0" d="M135.5,75.9c0,0-1-1.6-1.2-2c-0.9-1.5-2.7-2.8-5.5-3.1c-2.3-0.3-27.9-3.2-27.9-3.2l3.6,7.4L135.5,75.9z"/>
	<path class="st0" d="M54.7,61.2c0,0,10.3,1.3,11.9,1.4c5.6,0.7,7.6,3.5,9.3,8.2c1.7,4.7,7.5,20.3,7.5,20.3l2-0.3
		c8.2-1.1,11.5-0.5,13.9,1.1L88,65.5c-3.6-8.3-8.1-10-17.8-11.9c-2.2-0.4-7.5-1.5-10.9-2.2c-3.4-0.7-6,1.4-6.1,4.3
		c-0.1-0.6-1.7-5.9-1.7-5.9l-18.3-3.7l10.2,50l20.7-2.6L54.7,61.2z"/>
	<path class="st0" d="M103.1,100.7c-2.1-5-7.3-5.8-15.4-4.4c-8,1.5-42.7,7.9-42.7,7.9l3,14.8l43.4-12.7c8.5-2.5,13-2.6,14-0.3
		c2.2,5.1,8.3,5.4,15.2,2.3c5.6-2.5,27.4-12.2,27.4-12.2l-3.4-5.5L104,102.6C104,102.6,103.7,101.9,103.1,100.7z"/>
	<polygon class="st0" points="112.5,91.7 141.9,86.4 138.8,81.3 108.6,83.6 	"/>
	<path class="st0" d="M174.5,4.9h162.8v162.8H174.5V4.9z"/>
	<path class="st0" d="M116.4,119.7c-8.1,4.6-14.8,4.3-17.1-1.5c-1.4-3.6-5.6-3.1-13.3-0.1c-5.7,2.2-41.6,16.4-46,17.9
		c-4.6,1.6-9-0.4-9.6-5.1c-0.6-4.6-11.7-87-11.7-87c-0.7-5,3.1-8.4,7.9-7.2l48.7,12.2c7.9,2,13.3,6.5,15.2,10.8
		c0,0,32.9,5.9,37.2,6.6c6,1.1,8.8,3.8,10.9,7.2C140,75.9,154.1,98,154.1,98S123.6,115.6,116.4,119.7z"/>
	<path class="st1" d="M174.5,167.7h162.8V4.9H174.5V167.7z M314.3,132.5h-8.5v-18.2h-18.1l2.9-6.6c0.2-0.6,0.8-0.9,1.4-0.9h13.8
		v-9.1c0-0.6-0.5-1.1-1.1-1.1h-17.2c-0.6,0-1.1,0.5-1.1,1.1v34.9h-8.5V97.6c0-4.7,3.8-8.6,8.5-8.7v0h19.5v0c4.7,0.1,8.5,4,8.5,8.7
		V132.5z M272.5,40.1h8.5V75c0,0.6,0.5,1.1,1.1,1.1h7v-36h8.5v36h7c0.6,0,1.1-0.5,1.1-1.1V40.1h8.5V75c0,4.7-3.8,8.6-8.5,8.7H281
		c-4.7-0.1-8.5-4-8.5-8.7V40.1z M235.4,48.8c0-4.8,3.8-8.6,8.5-8.7v0H268v7.6H245c-0.6,0-1.1,0.5-1.1,1.1v9.1h22v7.6h-22V75
		c0,0.6,0.5,1.1,1.1,1.1H268v7.6h-24.1v0c-4.7-0.1-8.5-4-8.5-8.7V48.8z M235.4,97.6c0-4.7,3.8-8.6,8.5-8.7v0H264v0
		c4.7,0.1,8.5,4,8.5,8.7v8.1c0,4.4-3.3,7.9-7.4,8.6l9.6,18.2h-9.9l-8.9-18.2h-10.8l2.9-6.6c0.2-0.6,0.8-0.9,1.4-0.9h13.4
		c0.6,0,1.1-0.5,1.1-1.1v-8c0-0.6-0.5-1.1-1.1-1.1H245c-0.6,0-1.1,0.5-1.1,1.1v34.9h-8.5V97.6z M197.5,43.3c0-1.8,1.5-3.3,3.3-3.3
		h2.5c1.2,0,2.2,0.6,2.8,1.4l16.3,25.3V40.1h8.5v40.3c0,1.8-1.5,3.3-3.2,3.3h-2.5c-1.2,0-2.2-0.6-2.8-1.4L206,56.9v26.8h-8.5V43.3z
		 M197.5,97.6c0-4.7,3.8-8.6,8.5-8.7v0h24.9v7.6h-23.7c-0.6,0-1.1,0.5-1.1,1.1v9.1h22.8v7.6H206v9.5c0,0.6,0.5,1.1,1.1,1.1h23.7v7.6
		H206c-4.7-0.1-8.5-4-8.5-8.7V97.6z"/>
	<path class="st1" d="M127.6,66.3c-4.2-0.8-37.2-6.6-37.2-6.6c-1.9-4.3-7.4-8.8-15.2-10.8L26.5,36.7c-4.8-1.2-8.6,2.2-7.9,7.2
		c0,0,11.1,82.5,11.7,87c0.6,4.7,5,6.7,9.6,5.1c4.3-1.6,40.3-15.7,46-17.9c7.7-3,11.9-3.5,13.3,0.1c2.2,5.8,9,6,17.1,1.5
		c7.3-4.1,37.7-21.7,37.7-21.7s-14-22.1-15.5-24.5C136.4,70.1,133.6,67.4,127.6,66.3z M128.8,70.8c2.8,0.3,4.5,1.7,5.5,3.1
		c0.3,0.4,1.2,2,1.2,2L104.4,75l-3.6-7.4C100.9,67.6,126.5,70.5,128.8,70.8z M33.2,46.2l18.3,3.7c0,0,1.5,5.2,1.7,5.9
		c0.1-2.9,2.7-5,6.1-4.3c3.4,0.7,8.7,1.8,10.9,2.2c9.7,1.9,14.2,3.6,17.8,11.9l11.4,26.4c-2.5-1.6-5.7-2.2-13.9-1.1l-2,0.3
		c0,0-5.7-15.6-7.5-20.3c-1.7-4.7-3.8-7.5-9.3-8.2c-1.5-0.2-11.9-1.4-11.9-1.4l9.3,32.4l-20.7,2.6L33.2,46.2z M148,96.2
		c0,0-21.8,9.7-27.4,12.2c-6.9,3.1-13,2.7-15.2-2.3c-1-2.3-5.5-2.2-14,0.3L48,119l-3-14.8c0,0,34.7-6.4,42.7-7.9
		c8-1.5,13.2-0.6,15.4,4.4c0.6,1.3,0.8,1.9,0.8,1.9l40.6-11.9L148,96.2z M141.9,86.4l-29.4,5.4l-4-8.2l30.3-2.2L141.9,86.4z"/>
	<path d="M243.9,97.6c0-0.6,0.5-1.1,1.1-1.1h17.8c0.6,0,1.1,0.5,1.1,1.1v8c0,0.6-0.5,1.1-1.1,1.1h-13.4c-0.6,0-1.2,0.4-1.4,0.9
		l-2.9,6.6h10.8l8.9,18.2h9.9l-9.6-18.2c4.1-0.7,7.4-4.2,7.4-8.6v-8.1c0-4.7-3.8-8.6-8.5-8.7v0h-20.1v0c-4.7,0.1-8.5,4-8.5,8.7v34.9
		h8.5V97.6z"/>
	<path d="M206,56.9l16.3,25.3c0.6,0.8,1.7,1.4,2.8,1.4h2.5c1.8,0,3.2-1.5,3.2-3.3V40.1h-8.5v26.7L206,41.5c-0.6-0.9-1.7-1.4-2.8-1.4
		h-2.5c-1.8,0-3.3,1.5-3.3,3.3v40.4h8.5V56.9z"/>
	<path d="M206,132.5h24.9v-7.6h-23.7c-0.6,0-1.1-0.5-1.1-1.1v-9.5h22.8v-7.6H206v-9.1c0-0.6,0.5-1.1,1.1-1.1h23.7v-7.6H206v0
		c-4.7,0.1-8.5,4-8.5,8.7v26.2C197.5,128.5,201.3,132.3,206,132.5z"/>
	<path d="M243.9,83.7L243.9,83.7l24.1,0v-7.6H245c-0.6,0-1.1-0.5-1.1-1.1v-9.5h22v-7.6h-22v-9.1c0-0.6,0.5-1.1,1.1-1.1H268v-7.6
		h-24.1v0c-4.7,0.1-8.5,4-8.5,8.7V75C235.4,79.7,239.2,83.5,243.9,83.7z"/>
	<path d="M281,83.7h24.9c4.7-0.1,8.5-4,8.5-8.7V40.1h-8.5V75c0,0.6-0.5,1.1-1.1,1.1h-7v-36h-8.5v36h-7c-0.6,0-1.1-0.5-1.1-1.1V40.1
		h-8.5V75C272.5,79.7,276.2,83.6,281,83.7z"/>
	<path d="M305.8,88.9L305.8,88.9l-19.5,0v0c-4.7,0.1-8.5,4-8.5,8.7v34.9h8.5V97.6c0-0.6,0.5-1.1,1.1-1.1h17.2c0.6,0,1.1,0.5,1.1,1.1
		v9.1H292c-0.6,0-1.2,0.4-1.4,0.9l-2.9,6.6h18.1v18.2h8.5V97.6C314.3,92.9,310.5,89,305.8,88.9z"/>
	<path d="M135.5,75.9c0,0-1-1.6-1.2-2c-0.9-1.5-2.7-2.8-5.5-3.1c-2.3-0.3-27.9-3.2-27.9-3.2l3.6,7.4L135.5,75.9z"/>
	<path d="M54.7,61.2c0,0,10.3,1.3,11.9,1.4c5.6,0.7,7.6,3.5,9.3,8.2c1.7,4.7,7.5,20.3,7.5,20.3l2-0.3c8.2-1.1,11.5-0.5,13.9,1.1
		L88,65.5c-3.6-8.3-8.1-10-17.8-11.9c-2.2-0.4-7.5-1.5-10.9-2.2c-3.4-0.7-6,1.4-6.1,4.3c-0.1-0.6-1.7-5.9-1.7-5.9l-18.3-3.7l10.2,50
		l20.7-2.6L54.7,61.2z"/>
	<path d="M103.1,100.7c-2.1-5-7.3-5.8-15.4-4.4c-8,1.5-42.7,7.9-42.7,7.9l3,14.8l43.4-12.7c8.5-2.5,13-2.6,14-0.3
		c2.2,5.1,8.3,5.4,15.2,2.3c5.6-2.5,27.4-12.2,27.4-12.2l-3.4-5.5L104,102.6C104,102.6,103.7,101.9,103.1,100.7z"/>
	<polygon points="112.5,91.7 141.9,86.4 138.8,81.3 108.6,83.6 	"/>
	<g>
		<path class="st1" d="M351.9,166.2c0-0.6-0.3-0.9-1.3-0.9h-1.2v1.8h1.1C351.6,167.2,351.9,166.9,351.9,166.2z"/>
		<path class="st1" d="M350.5,163.3c-2.3,0-4.1,1.8-4.1,4.2c0,2.5,1.8,4.2,4.1,4.2c2.3,0,4.1-1.8,4.1-4.2
			C354.6,165.1,352.8,163.3,350.5,163.3z M352,170.4l-1.5-2.5h-1v2.5h-0.9v-5.8h2.2c1.4,0,2.1,0.5,2.1,1.7c0,1-0.7,1.5-1.5,1.6
			l1.7,2.6H352z"/>
		<path class="st1" d="M351.9,166.2c0-0.6-0.3-0.9-1.3-0.9h-1.2v1.8h1.1C351.6,167.2,351.9,166.9,351.9,166.2z"/>
		<path class="st1" d="M350.5,163.3c-2.3,0-4.1,1.8-4.1,4.2c0,2.5,1.8,4.2,4.1,4.2c2.3,0,4.1-1.8,4.1-4.2
			C354.6,165.1,352.8,163.3,350.5,163.3z M352,170.4l-1.5-2.5h-1v2.5h-0.9v-5.8h2.2c1.4,0,2.1,0.5,2.1,1.7c0,1-0.7,1.5-1.5,1.6
			l1.7,2.6H352z"/>
		<path d="M352.8,166.3c0-1.1-0.7-1.7-2.1-1.7h-2.2v5.8h0.9v-2.5h1l1.5,2.5h1l-1.7-2.6C352.1,167.8,352.8,167.3,352.8,166.3z
			 M349.4,167.2v-1.8h1.2c1,0,1.3,0.3,1.3,0.9c0,0.6-0.4,0.9-1.4,0.9H349.4z"/>
		<path d="M355.6,167.5c0-2.9-2.3-5-5.1-5c-2.8,0-5.1,2.1-5.1,5c0,2.9,2.3,5,5.1,5C353.2,172.6,355.6,170.4,355.6,167.5z
			 M350.5,171.7c-2.3,0-4.1-1.8-4.1-4.2c0-2.4,1.8-4.2,4.1-4.2c2.3,0,4.1,1.8,4.1,4.2C354.6,170,352.8,171.7,350.5,171.7z"/>
	</g>
	<path d="M341.6,171.9V0L0,0l0,171.9 M116.4,119.7c-8.1,4.6-14.8,4.3-17.1-1.5c-1.4-3.6-5.6-3.1-13.3-0.1
		c-5.7,2.2-41.6,16.4-46,17.9c-4.6,1.6-9-0.4-9.6-5.1c-0.6-4.6-11.7-87-11.7-87c-0.7-5,3.1-8.4,7.9-7.2l48.7,12.2
		c7.9,2,13.3,6.5,15.2,10.8c0,0,32.9,5.9,37.2,6.6c6,1.1,8.8,3.8,10.9,7.2C140,75.9,154.1,98,154.1,98S123.6,115.6,116.4,119.7z
		 M337.3,167.7H174.5V4.9h162.8V167.7z"/>
</g>
<rect x="3.1" y="405.9" width="167.6" height="165.9"/>
<path class="st0" d="M0,402.8v171.9h341.3V402.8L0,402.8z M168.2,569.2H5.5V408.3h162.7V569.2z"/>
<path class="st0" d="M29.9,533.5c0.6,4.7,5,6.7,9.6,5.1c4.4-1.6,40.4-15.8,46.1-18c7.7-3,12-3.5,13.4,0.1c2.3,5.8,9,6.1,17.1,1.5
	c7.3-4.1,37.8-21.8,37.8-21.8s-14.1-22.2-15.5-24.6c-2.2-3.4-4.9-6.1-11-7.2c-4.3-0.8-37.3-6.7-37.3-6.7c-1.9-4.3-7.4-8.9-15.3-10.8
	L26,439c-4.8-1.2-8.6,2.2-7.9,7.2C18.1,446.2,29.3,528.9,29.9,533.5 M147.8,498.7c0,0-21.8,9.7-27.4,12.2c-6.9,3.1-13,2.7-15.2-2.4
	c-1-2.3-5.5-2.2-14,0.3l-43.6,12.7l-3-14.9c0,0,34.9-6.4,42.9-7.9c8.1-1.5,13.3-0.6,15.4,4.4c0.6,1.3,0.9,2,0.9,2l40.8-11.9
	L147.8,498.7z M138.7,483.8l3.1,5l-29.5,5.4l-4-8.2L138.7,483.8z M128.6,473.2c2.8,0.3,4.5,1.7,5.5,3.2c0.3,0.4,1.2,2,1.2,2
	l-31.2-0.9l-3.6-7.4C100.6,470,126.3,472.9,128.6,473.2 M51.1,452.2c0,0,1.5,5.2,1.7,5.9c0.1-2.9,2.7-5,6.1-4.3
	c3.4,0.7,8.7,1.8,10.9,2.2c9.7,1.9,14.3,3.7,17.9,12l11.4,26.5c-2.5-1.6-5.7-2.2-14-1.1l-2,0.3c0,0-5.8-15.7-7.5-20.3
	c-1.7-4.7-3.8-7.5-9.4-8.2c-1.6-0.2-11.9-1.4-11.9-1.4l9.4,32.5l-20.8,2.7l-10.2-50.1L51.1,452.2z"/>
<path d="M243.3,486.1h24.1v-7.6h-23c-0.6,0-1.1-0.5-1.1-1.1v-9.5h22v-7.6h-22v-9.1c0-0.6,0.5-1.1,1.1-1.1h23v-7.6h-24.1v0
	c-4.7,0.1-8.5,4-8.5,8.7v26.2C234.8,482.1,238.6,486,243.3,486.1L243.3,486.1z M277.3,500.1v35h8.5v-35c0-0.6,0.5-1.1,1.1-1.1h17.3
	c0.6,0,1.1,0.5,1.1,1.1v9.1h-13.8c-0.6,0-1.2,0.4-1.4,0.9l-2.9,6.6h18.2v18.2h8.6v-35c0-4.8-3.8-8.6-8.5-8.7v0h-19.6v0
	C281.1,491.5,277.3,495.3,277.3,500.1 M272,477.4c0,4.8,3.8,8.6,8.5,8.7h24.9c4.7-0.1,8.5-4,8.5-8.7v-35h-8.6v35
	c0,0.6-0.5,1.1-1.1,1.1h-7v-36.1h-8.6v36.1h-7c-0.6,0-1.1-0.5-1.1-1.1v-35H272V477.4z M234.8,500.1v35h8.5v-35
	c0-0.6,0.5-1.1,1.1-1.1h17.9c0.6,0,1.1,0.5,1.1,1.1v8c0,0.6-0.5,1.1-1.1,1.1h-13.5c-0.6,0-1.2,0.4-1.4,0.9l-2.9,6.6h10.8l8.9,18.2
	h9.9l-9.6-18.3c4.1-0.7,7.4-4.3,7.4-8.6v-8.1c0-4.8-3.8-8.6-8.5-8.7v0h-20.2v0C238.6,491.5,234.8,495.4,234.8,500.1 M196.8,500.1
	v26.2c0,4.8,3.8,8.6,8.5,8.7h25v-7.6h-23.8c-0.6,0-1.1-0.5-1.1-1.1v-9.5h22.8v-7.6h-22.8v-9.1c0-0.6,0.5-1.1,1.1-1.1h23.8v-7.6h-25
	v0C200.6,491.5,196.8,495.4,196.8,500.1 M196.8,445.7v40.5h8.5v-26.8l16.4,25.4c0.6,0.8,1.7,1.4,2.8,1.4h2.5c1.8,0,3.2-1.5,3.2-3.3
	v-40.5h-8.5v26.8l-16.4-25.4c-0.6-0.9-1.7-1.4-2.8-1.4H200C198.2,442.4,196.8,443.9,196.8,445.7"/>
<path class="st0" d="M351.7,564.4c2.8,0,5.2,2.2,5.2,5.1c0,3-2.4,5.2-5.2,5.2c-2.8,0-5.2-2.2-5.2-5.2
	C346.4,566.6,348.8,564.4,351.7,564.4 M351.7,565.2c-2.4,0-4.2,1.8-4.2,4.3c0,2.5,1.8,4.3,4.2,4.3c2.4,0,4.2-1.8,4.2-4.3
	C355.9,567.1,354,565.2,351.7,565.2 M350.6,572.5h-0.9v-5.9h2.3c1.4,0,2.1,0.5,2.1,1.7c0,1.1-0.7,1.5-1.6,1.6l1.7,2.6h-1l-1.6-2.6
	h-1V572.5z M350.6,569.2h1.1c1.1,0,1.5-0.3,1.5-1c0-0.6-0.3-0.9-1.3-0.9h-1.2V569.2z"/>
</svg>
